<?xml version="1.0" encoding="UTF-8"?>
<svg xmlns="http://www.w3.org/2000/svg" id="Calque_2" data-name="Calque 2" viewBox="0 0 382.8 71.98">
  <defs>
    <style>
      .cls-1 {
        fill: #fcfff7;
      }
    </style>
  </defs>
  <g id="Calque_1-2" data-name="Calque 1">
    <g id="logo">
      <g>
        <g>
          <g id="_Répétition_radiale_" data-name="&amp;lt;Répétition radiale&amp;gt;">
            <path class="cls-1" d="m44.07.15c.57-.05,1.21-.09,1.67-.09.66,0,1.32.02,1.97.05.51.02,1.02.06,1.53.12.56.07,1.12.14,1.68.27.93.21,1.86.42,2.77.69.76.22,1.5.51,2.24.8,1.36.54,2.66,1.21,3.89,2,.61.39,1.2.8,1.78,1.23.55.41,1.08.85,1.59,1.3.5.44,1.01.88,1.46,1.37.66.72,1.31,1.45,1.9,2.22.58.75,1.11,1.54,1.62,2.34.76,1.19,1.38,2.46,1.89,3.78.32.84.61,1.69.87,2.54.19.62.31,1.25.45,1.89.12.57.21,1.14.31,1.71.03.18.05.37.07.56.06.83.13,1.65.15,2.48.02.64,0,1.29-.05,1.94-.05.77-.12,1.54-.23,2.3-.09.67-.22,1.34-.38,1.99-.23.92-.49,1.83-.79,2.72-.23.69-.51,1.38-.83,2.04-.41.86-.83,1.72-1.42,2.48-.42.55-.86,1.09-1.34,1.59-.74.77-1.58,1.43-2.49,2-1.13.7-2.34,1.23-3.62,1.6-.48.14-.97.24-1.46.3-.74.09-1.48.17-2.22.18-.88,0-1.76-.1-2.62-.29-1.01-.22-1.99-.54-2.93-.98-.78-.37-1.54-.79-2.22-1.32-.54-.43-1.09-.86-1.59-1.34-.44-.42-.84-.89-1.21-1.38-.41-.56-.8-1.14-1.14-1.74-.55-.98-.97-2.03-1.21-3.13-.11-.5-.19-1.01-.26-1.52-.07-.49-.13-.98-.14-1.47-.03-1.02.08-2.02.31-3.01.19-.81.45-1.59.83-2.32.38-.74.8-1.48,1.27-2.16.56-.81,1.12-1.61,1.58-2.48.74-1.41,1.28-2.9,1.56-4.48.12-.68.21-1.36.28-2.05.04-.39.03-.78.02-1.17,0-.49,0-.98-.04-1.46-.05-.6-.15-1.19-.23-1.79-.1-.73-.23-1.45-.49-2.14-.25-.67-.5-1.35-.82-1.99-.32-.66-.68-1.31-1.1-1.92-.48-.71-1.14-1.26-1.81-1.8-.82-.66-.72-.55-1.49-1.17-.56-.4-.61-1.02-.07-1.13"></path>
          </g>
          <g id="_Répétition_radiale_-2" data-name="&amp;lt;Répétition radiale&amp;gt;">
            <path class="cls-1" d="m71.76,44.08c.05.57.09,1.21.09,1.67,0,.66-.02,1.32-.05,1.97-.02.51-.06,1.02-.12,1.53-.07.56-.14,1.12-.27,1.68-.21.93-.42,1.86-.69,2.77-.22.76-.51,1.5-.8,2.24-.54,1.36-1.21,2.66-2,3.89-.39.61-.8,1.2-1.23,1.78-.41.55-.85,1.08-1.3,1.59-.44.5-.88,1.01-1.37,1.46-.72.66-1.45,1.31-2.22,1.9-.75.58-1.54,1.11-2.34,1.62-1.19.76-2.46,1.38-3.78,1.89-.84.32-1.69.61-2.54.87-.62.19-1.25.31-1.89.45-.57.12-1.14.21-1.71.31-.18.03-.37.05-.56.07-.83.06-1.65.13-2.48.15-.64.02-1.29,0-1.94-.05-.77-.05-1.54-.12-2.3-.23-.67-.09-1.34-.22-1.99-.38-.92-.23-1.83-.49-2.72-.79-.69-.23-1.38-.51-2.04-.83-.86-.41-1.72-.83-2.48-1.42-.55-.42-1.09-.86-1.59-1.34-.77-.74-1.43-1.58-2-2.49-.7-1.13-1.23-2.34-1.6-3.62-.14-.48-.24-.97-.3-1.46-.09-.74-.17-1.48-.18-2.22,0-.88.1-1.76.29-2.62.22-1.01.54-1.99.98-2.93.37-.78.79-1.54,1.32-2.22.43-.54.86-1.09,1.34-1.59.42-.44.89-.84,1.38-1.21.56-.41,1.14-.8,1.74-1.14.98-.55,2.03-.97,3.13-1.21.5-.11,1.01-.19,1.52-.26.49-.07.98-.13,1.47-.14,1.02-.03,2.02.08,3.01.31.81.19,1.59.45,2.32.83.74.38,1.48.8,2.16,1.27.81.56,1.61,1.12,2.48,1.58,1.41.74,2.9,1.28,4.48,1.56.68.12,1.36.21,2.05.28.39.04.78.03,1.17.02.49,0,.98,0,1.46-.04.6-.05,1.19-.15,1.79-.23.73-.1,1.45-.23,2.14-.49.67-.25,1.35-.5,1.99-.82.66-.32,1.31-.68,1.92-1.1.71-.48,1.26-1.14,1.8-1.81.66-.82.55-.72,1.17-1.49.4-.56,1.02-.61,1.13-.07"></path>
          </g>
          <g id="_Répétition_radiale_-3" data-name="&amp;lt;Répétition radiale&amp;gt;">
            <path class="cls-1" d="m27.83,71.76c-.57.05-1.21.09-1.67.09-.66,0-1.32-.02-1.97-.05-.51-.02-1.02-.06-1.53-.12-.56-.07-1.12-.14-1.68-.27-.93-.21-1.86-.42-2.77-.69-.76-.22-1.5-.51-2.24-.8-1.36-.54-2.66-1.21-3.89-2-.61-.39-1.2-.8-1.78-1.23-.55-.41-1.08-.85-1.59-1.3-.5-.44-1.01-.88-1.46-1.37-.66-.72-1.31-1.45-1.9-2.22-.58-.75-1.11-1.54-1.62-2.34-.76-1.19-1.38-2.46-1.89-3.78-.32-.84-.61-1.69-.87-2.54-.19-.62-.31-1.25-.45-1.89-.12-.57-.21-1.14-.31-1.71-.03-.18-.05-.37-.07-.56-.06-.83-.13-1.65-.15-2.48-.02-.64,0-1.29.05-1.94.05-.77.12-1.54.23-2.3.09-.67.22-1.34.38-1.99.23-.92.49-1.83.79-2.72.23-.69.51-1.38.83-2.04.41-.86.83-1.72,1.42-2.48.42-.55.86-1.09,1.34-1.59.74-.77,1.58-1.43,2.49-2,1.13-.7,2.34-1.23,3.62-1.6.48-.14.97-.24,1.46-.3.74-.09,1.48-.17,2.22-.18.88,0,1.76.1,2.62.29,1.01.22,1.99.54,2.93.98.78.37,1.54.79,2.22,1.32.54.43,1.09.86,1.59,1.34.44.42.84.89,1.21,1.38.41.56.8,1.14,1.14,1.74.55.98.97,2.03,1.21,3.13.11.5.19,1.01.26,1.52.07.49.13.98.14,1.47.03,1.02-.08,2.02-.31,3.01-.19.81-.45,1.59-.83,2.32-.38.74-.8,1.48-1.27,2.16-.56.81-1.12,1.61-1.58,2.48-.74,1.41-1.28,2.9-1.56,4.48-.12.68-.21,1.36-.28,2.05-.04.39-.03.78-.02,1.17,0,.49,0,.98.04,1.46.05.6.15,1.19.23,1.79.1.73.23,1.45.49,2.14.25.67.5,1.35.82,1.99.32.66.68,1.31,1.1,1.92.48.71,1.14,1.26,1.81,1.8.82.66.72.55,1.49,1.17.56.4.61,1.02.07,1.13"></path>
          </g>
          <g id="_Répétition_radiale_-4" data-name="&amp;lt;Répétition radiale&amp;gt;">
            <path class="cls-1" d="m.15,27.83c-.05-.57-.09-1.21-.09-1.67,0-.66.02-1.32.05-1.97.02-.51.06-1.02.12-1.53.07-.56.14-1.12.27-1.68.21-.93.42-1.86.69-2.77.22-.76.51-1.5.8-2.24.54-1.36,1.21-2.66,2-3.89.39-.61.8-1.2,1.23-1.78.41-.55.85-1.08,1.3-1.59.44-.5.88-1.01,1.37-1.46.72-.66,1.45-1.31,2.22-1.9.75-.58,1.54-1.11,2.34-1.62,1.19-.76,2.46-1.38,3.78-1.89.84-.32,1.69-.61,2.54-.87.62-.19,1.25-.31,1.89-.45.57-.12,1.14-.21,1.71-.31.18-.03.37-.05.56-.07.83-.06,1.65-.13,2.48-.15.64-.02,1.29,0,1.94.05.77.05,1.54.12,2.3.23.67.09,1.34.22,1.99.38.92.23,1.83.49,2.72.79.69.23,1.38.51,2.04.83.86.41,1.72.83,2.48,1.42.55.42,1.09.86,1.59,1.34.77.74,1.43,1.58,2,2.49.7,1.13,1.23,2.34,1.6,3.62.14.48.24.97.3,1.46.09.74.17,1.48.18,2.22,0,.88-.1,1.76-.29,2.62-.22,1.01-.54,1.99-.98,2.93-.37.78-.79,1.54-1.32,2.22-.43.54-.86,1.09-1.34,1.59-.42.44-.89.84-1.38,1.21-.56.41-1.14.8-1.74,1.14-.98.55-2.03.97-3.13,1.21-.5.11-1.01.19-1.52.26-.49.07-.98.13-1.47.14-1.02.03-2.02-.08-3.01-.31-.81-.19-1.59-.45-2.32-.83-.74-.38-1.48-.8-2.16-1.27-.81-.56-1.61-1.12-2.48-1.58-1.41-.74-2.9-1.28-4.48-1.56-.68-.12-1.36-.21-2.05-.28-.39-.04-.78-.03-1.17-.02-.49,0-.98,0-1.46.04-.6.05-1.19.15-1.79.23-.73.1-1.45.23-2.14.49-.67.25-1.35.5-1.99.82-.66.32-1.31.68-1.92,1.1-.71.48-1.26,1.14-1.8,1.81-.66.82-.55.72-1.17,1.49-.4.56-1.02.61-1.13.07"></path>
          </g>
        </g>
        <g>
          <g>
            <path class="cls-1" d="m147.7,25.45v16.13h-8.09v-15.15c0-2.6-.33-4.44-1.02-5.53-.7-1.09-1.98-1.63-3.86-1.63-.58,0-1.19.02-1.84.09-.65.05-1.23.12-1.74.19v22.03h-33.35c-3.93,0-7.09-3.18-7.09-7.09V11.11c0-3.95,3.21-7.16,7.14-7.16h11.16c3.93,0,7.11,3.18,7.11,7.11h-16.94v7.39h15.04v6.95h-15.04v9.06h23.89V14c1.37-.4,3.16-.77,5.32-1.09,2.16-.35,4.44-.53,6.83-.53s4.44.33,6.07.95c1.6.65,2.88,1.53,3.81,2.7.95,1.16,1.6,2.53,2.02,4.11.4,1.6.58,3.37.58,5.32Z"></path>
            <path class="cls-1" d="m200.83,13.07c-.6-.14-1.23-.26-1.84-.33-.63-.09-1.23-.16-1.84-.23-.63-.05-1.16-.07-1.58-.07-2.44,0-4.63.21-6.6.67-1.98.44-3.67.93-5.14,1.44v20.57c-6.21.14-8.53.19-10.11.19-1.44,0-5.28.09-6.76.09-2.32,0-4.16-.49-5.53-1.46-1.39-.98-2.16-2.3-2.35-3.97h18.36c.02-.44.07-.93.09-1.49.05-.56.07-1.07.07-1.56,0-4.81-1.19-8.46-3.53-10.92-2.35-2.49-5.55-3.72-9.6-3.72-1.74,0-3.44.33-5.09.98-1.65.65-3.11,1.6-4.37,2.88-1.25,1.25-2.3,2.84-3.07,4.74-.77,1.91-1.16,4.11-1.16,6.65,0,2.09.3,4.04.88,5.86.6,1.81,1.53,3.39,2.79,4.69,1.23,1.32,2.72,2.63,4.72,3.14,1.49.37,4.16.37,6.74.37h26.01v-21.82c.37-.12.91-.21,1.6-.3.72-.09,1.32-.14,1.81-.14,1.14,0,2.18.12,3.16.3.98.21,1.84.4,2.56.58l1.35-6.69c-.44-.16-.95-.33-1.58-.44Zm-41.23,9.32c.23-.67.58-1.26,1.02-1.77.42-.49.98-.91,1.63-1.21.65-.3,1.42-.46,2.32-.46.95,0,1.72.16,2.37.49.63.33,1.16.74,1.56,1.25.42.51.74,1.07.93,1.74.21.65.33,1.3.35,2h-10.69c.12-.7.28-1.37.51-2.05Z"></path>
            <g>
              <path class="cls-1" d="m204.17,27.7c0-2.05.33-3.99.98-5.8.65-1.82,1.6-3.4,2.84-4.75,1.24-1.35,2.74-2.42,4.51-3.21,1.77-.79,3.78-1.19,6.05-1.19,1.49,0,2.85.14,4.08.41,1.24.27,2.44.66,3.61,1.16l-1.64,6.43c-.74-.29-1.56-.54-2.44-.76-.88-.22-1.88-.32-2.97-.32-2.33,0-4.08.74-5.23,2.21-1.15,1.48-1.72,3.42-1.72,5.83,0,2.56.54,4.54,1.62,5.94,1.08,1.4,2.96,2.11,5.65,2.11.95,0,1.98-.09,3.08-.27,1.1-.18,2.1-.47,3.02-.86l1.11,6.59c-.92.4-2.07.74-3.45,1.03-1.38.29-2.9.43-4.56.43-2.55,0-4.74-.39-6.58-1.16-1.84-.77-3.35-1.83-4.54-3.16-1.19-1.33-2.05-2.91-2.6-4.73-.55-1.82-.82-3.79-.82-5.91Z"></path>
              <path class="cls-1" d="m255.74,27.65c0,2.23-.32,4.27-.96,6.13-.64,1.85-1.56,3.44-2.76,4.75-1.2,1.31-2.64,2.33-4.32,3.05-1.68.72-3.56,1.08-5.65,1.08s-3.92-.36-5.6-1.08c-1.68-.72-3.12-1.74-4.32-3.05-1.2-1.31-2.14-2.9-2.81-4.75-.67-1.85-1.01-3.9-1.01-6.13s.34-4.27,1.03-6.1,1.64-3.4,2.87-4.7c1.22-1.3,2.67-2.3,4.35-3.02,1.68-.72,3.51-1.08,5.49-1.08s3.86.36,5.54,1.08c1.68.72,3.12,1.73,4.32,3.02,1.2,1.3,2.14,2.86,2.81,4.7s1.01,3.87,1.01,6.1Zm-8.06,0c0-2.48-.49-4.44-1.46-5.86-.97-1.42-2.36-2.13-4.16-2.13s-3.2.71-4.19,2.13c-.99,1.42-1.49,3.38-1.49,5.86s.49,4.46,1.49,5.91c.99,1.46,2.39,2.19,4.19,2.19s3.19-.73,4.16-2.19,1.46-3.43,1.46-5.91Z"></path>
              <path class="cls-1" d="m260.78,14.47c1.34-.4,3.08-.76,5.2-1.11,2.12-.34,4.35-.51,6.68-.51s4.34.32,5.92.94c1.57.63,2.82,1.52,3.74,2.67.92,1.15,1.57,2.52,1.96,4.1.39,1.58.58,3.35.58,5.29v16.04h-7.91v-15.07c0-2.59-.34-4.43-1.01-5.51-.67-1.08-1.93-1.62-3.77-1.62-.57,0-1.17.03-1.8.08-.64.05-1.2.12-1.7.19v21.92h-7.91V14.47Z"></path>
              <path class="cls-1" d="m303.07,0c1.49,0,2.85.15,4.08.46,1.24.31,2.19.6,2.87.89l-1.54,6.43c-.71-.32-1.48-.57-2.31-.73s-1.6-.24-2.31-.24c-.96,0-1.76.14-2.41.41-.66.27-1.17.64-1.54,1.11-.37.47-.64,1.03-.8,1.67s-.24,1.35-.24,2.11v1.4h9.76v6.7h-9.76v21.71h-7.91V11.99c0-3.67,1.02-6.59,3.05-8.75C296.05,1.08,299.07,0,303.07,0Z"></path>
              <path class="cls-1" d="m337.98,27.65c0,2.23-.32,4.27-.96,6.13-.64,1.85-1.56,3.44-2.76,4.75-1.2,1.31-2.64,2.33-4.32,3.05-1.68.72-3.56,1.08-5.65,1.08s-3.92-.36-5.6-1.08c-1.68-.72-3.12-1.74-4.32-3.05-1.2-1.31-2.14-2.9-2.81-4.75-.67-1.85-1.01-3.9-1.01-6.13s.34-4.27,1.03-6.1,1.64-3.4,2.87-4.7c1.22-1.3,2.67-2.3,4.35-3.02,1.68-.72,3.51-1.08,5.49-1.08s3.86.36,5.54,1.08c1.68.72,3.12,1.73,4.32,3.02,1.2,1.3,2.14,2.86,2.81,4.7s1.01,3.87,1.01,6.1Zm-8.06,0c0-2.48-.49-4.44-1.46-5.86-.97-1.42-2.36-2.13-4.16-2.13s-3.2.71-4.19,2.13c-.99,1.42-1.49,3.38-1.49,5.86s.49,4.46,1.49,5.91c.99,1.46,2.39,2.19,4.19,2.19s3.19-.73,4.16-2.19,1.46-3.43,1.46-5.91Z"></path>
              <path class="cls-1" d="m359.84,20.63c-.71-.18-1.54-.37-2.49-.57-.96-.2-1.98-.3-3.08-.3-.5,0-1.09.05-1.78.14-.69.09-1.21.19-1.57.3v21.71h-7.91V15.01c1.41-.5,3.08-.98,5.01-1.43,1.93-.45,4.08-.67,6.45-.67.42,0,.94.03,1.54.08s1.2.13,1.8.22c.6.09,1.2.2,1.8.32.6.13,1.11.28,1.54.46l-1.33,6.64Z"></path>
              <path class="cls-1" d="m364.08,6.43l7.91-1.3v8.37h9.5v6.7h-9.5v9.99c0,1.69.29,3.04.88,4.05.58,1.01,1.76,1.51,3.53,1.51.85,0,1.72-.08,2.63-.24.9-.16,1.72-.39,2.47-.68l1.11,6.26c-.96.4-2.02.74-3.18,1.03-1.17.29-2.6.43-4.3.43-2.16,0-3.94-.3-5.36-.89-1.42-.59-2.55-1.42-3.4-2.48-.85-1.06-1.44-2.35-1.78-3.86-.34-1.51-.5-3.19-.5-5.02V6.43Z"></path>
            </g>
          </g>
          <g>
            <path class="cls-1" d="m106.11,50.83c-.61,1.76-1.19,3.39-1.74,4.88-.55,1.5-1.09,2.92-1.62,4.26-.53,1.34-1.05,2.63-1.57,3.85-.52,1.22-1.05,2.44-1.6,3.64h-2.18c-.54-1.2-1.08-2.41-1.6-3.64-.52-1.22-1.05-2.51-1.58-3.85-.54-1.34-1.08-2.76-1.64-4.26-.56-1.5-1.14-3.12-1.73-4.88h2.57c.86,2.53,1.71,4.96,2.54,7.3.83,2.34,1.69,4.53,2.57,6.58.88-2.03,1.74-4.22,2.57-6.56.83-2.34,1.67-4.78,2.52-7.31h2.5Z"></path>
            <path class="cls-1" d="m118.86,61.23c0,.99-.14,1.89-.43,2.69-.29.8-.69,1.49-1.21,2.06-.52.58-1.14,1.02-1.86,1.33-.72.31-1.5.47-2.35.47s-1.63-.16-2.35-.47c-.72-.31-1.34-.76-1.86-1.33-.52-.58-.92-1.26-1.21-2.06-.29-.8-.43-1.7-.43-2.69s.14-1.87.43-2.68c.29-.81.69-1.5,1.21-2.08.52-.58,1.14-1.02,1.86-1.33s1.5-.47,2.35-.47,1.63.16,2.35.47c.72.31,1.34.76,1.86,1.33.52.58.92,1.27,1.21,2.08.29.81.43,1.7.43,2.68Zm-2.33,0c0-1.41-.32-2.52-.95-3.35-.63-.82-1.49-1.24-2.58-1.24s-1.95.41-2.58,1.24c-.63.82-.95,1.94-.95,3.35s.32,2.52.95,3.35c.63.82,1.49,1.24,2.58,1.24s1.95-.41,2.58-1.24c.63-.82.95-1.94.95-3.35Z"></path>
            <path class="cls-1" d="m124.73,54.99h4.73v1.87h-4.73v5.76c0,.62.05,1.14.14,1.55.1.41.24.73.43.96s.43.4.72.49c.29.1.62.14,1.01.14.67,0,1.21-.08,1.62-.23.41-.15.69-.26.85-.32l.43,1.85c-.22.11-.62.25-1.18.42s-1.2.25-1.92.25c-.85,0-1.55-.11-2.1-.32-.55-.22-1-.54-1.33-.97-.34-.43-.57-.96-.71-1.6-.14-.63-.2-1.36-.2-2.2v-11.14l2.23-.38v3.86Z"></path>
            <path class="cls-1" d="m137.55,54.72c.19,0,.41.01.66.04s.49.06.73.1c.24.04.46.08.66.12.2.04.35.08.44.11l-.38,1.94c-.18-.06-.47-.14-.88-.23-.41-.09-.93-.13-1.57-.13-.42,0-.83.04-1.24.13-.41.09-.68.15-.8.18v10.49h-2.23v-11.95c.53-.19,1.18-.37,1.97-.54.78-.17,1.66-.25,2.64-.25Z"></path>
            <path class="cls-1" d="m142.16,61.25c0-1.1.16-2.07.48-2.89.32-.82.74-1.51,1.27-2.05.53-.54,1.14-.95,1.82-1.22s1.39-.41,2.11-.41c1.68,0,2.97.52,3.86,1.57.9,1.05,1.34,2.64,1.34,4.79v.37c0,.15,0,.29-.02.42h-8.54c.1,1.3.47,2.28,1.13,2.95.66.67,1.68,1.01,3.07,1.01.78,0,1.44-.07,1.98-.2s.94-.27,1.21-.4l.31,1.87c-.27.14-.75.3-1.43.46-.68.16-1.45.24-2.32.24-1.09,0-2.03-.16-2.82-.49s-1.44-.78-1.96-1.36-.89-1.26-1.14-2.05c-.25-.79-.37-1.66-.37-2.6Zm8.57-1.22c.02-1.01-.24-1.84-.76-2.48-.52-.65-1.24-.97-2.15-.97-.51,0-.96.1-1.36.3-.39.2-.72.46-1,.78-.27.32-.48.69-.64,1.1-.15.42-.25.84-.3,1.27h6.19Z"></path>
            <path class="cls-1" d="m162.41,61.25c0-1.1.16-2.07.48-2.89.32-.82.74-1.51,1.27-2.05.53-.54,1.14-.95,1.82-1.22s1.39-.41,2.11-.41c1.68,0,2.97.52,3.86,1.57.9,1.05,1.34,2.64,1.34,4.79v.37c0,.15,0,.29-.02.42h-8.54c.1,1.3.47,2.28,1.13,2.95.66.67,1.68,1.01,3.07,1.01.78,0,1.44-.07,1.98-.2s.94-.27,1.21-.4l.31,1.87c-.27.14-.75.3-1.43.46-.68.16-1.45.24-2.32.24-1.09,0-2.03-.16-2.82-.49s-1.44-.78-1.96-1.36-.89-1.26-1.14-2.05c-.25-.79-.37-1.66-.37-2.6Zm8.57-1.22c.02-1.01-.24-1.84-.76-2.48-.52-.65-1.24-.97-2.15-.97-.51,0-.96.1-1.36.3-.39.2-.72.46-1,.78-.27.32-.48.69-.64,1.1-.15.42-.25.84-.3,1.27h6.19Z"></path>
            <path class="cls-1" d="m184.64,67.47c-.18-.35-.39-.74-.65-1.18-.26-.43-.54-.88-.84-1.33-.3-.46-.62-.91-.94-1.36-.32-.45-.63-.87-.94-1.27-.3.4-.62.83-.94,1.28-.32.46-.63.91-.92,1.37-.3.46-.57.9-.83,1.33-.26.43-.47.82-.65,1.15h-2.3c.56-1.09,1.23-2.2,2-3.32.78-1.13,1.55-2.2,2.32-3.23l-4.13-5.93h2.52l2.98,4.37,3-4.37h2.38l-4.03,5.78c.77,1.04,1.56,2.14,2.36,3.3.81,1.16,1.49,2.29,2.05,3.4h-2.45Z"></path>
            <path class="cls-1" d="m201.08,61.25c0,.94-.12,1.82-.37,2.62-.25.8-.61,1.49-1.09,2.06-.48.58-1.07,1.02-1.76,1.34-.7.32-1.49.48-2.39.48-.72,0-1.36-.1-1.91-.29-.55-.19-.96-.38-1.24-.55v4.99h-2.23v-16.54c.53-.13,1.19-.27,1.98-.42.79-.15,1.71-.23,2.75-.23.96,0,1.82.15,2.59.46.77.3,1.42.74,1.97,1.3.54.56.96,1.24,1.26,2.05.3.81.44,1.72.44,2.72Zm-2.33,0c0-1.46-.36-2.58-1.08-3.36-.72-.78-1.68-1.18-2.88-1.18-.67,0-1.2.02-1.57.07-.38.05-.68.1-.9.17v7.87c.27.22.66.44,1.18.65.51.21,1.07.31,1.68.31.64,0,1.19-.12,1.64-.35s.83-.55,1.12-.96c.29-.41.5-.89.62-1.44.13-.55.19-1.15.19-1.79Z"></path>
            <path class="cls-1" d="m204.17,61.25c0-1.1.16-2.07.48-2.89.32-.82.74-1.51,1.27-2.05.53-.54,1.14-.95,1.82-1.22s1.39-.41,2.11-.41c1.68,0,2.97.52,3.86,1.57.9,1.05,1.34,2.64,1.34,4.79v.37c0,.15,0,.29-.02.42h-8.54c.1,1.3.47,2.28,1.13,2.95.66.67,1.68,1.01,3.07,1.01.78,0,1.44-.07,1.98-.2s.94-.27,1.21-.4l.31,1.87c-.27.14-.75.3-1.43.46-.68.16-1.45.24-2.32.24-1.09,0-2.03-.16-2.82-.49s-1.44-.78-1.96-1.36-.89-1.26-1.14-2.05c-.25-.79-.37-1.66-.37-2.6Zm8.57-1.22c.02-1.01-.24-1.84-.76-2.48-.52-.65-1.24-.97-2.15-.97-.51,0-.96.1-1.36.3-.39.2-.72.46-1,.78-.27.32-.48.69-.64,1.1-.15.42-.25.84-.3,1.27h6.19Z"></path>
            <path class="cls-1" d="m223.54,54.72c.19,0,.41.01.66.04s.49.06.73.1c.24.04.46.08.66.12.2.04.35.08.44.11l-.38,1.94c-.18-.06-.47-.14-.88-.23-.41-.09-.93-.13-1.57-.13-.42,0-.83.04-1.24.13-.41.09-.68.15-.8.18v10.49h-2.23v-11.95c.53-.19,1.18-.37,1.97-.54.78-.17,1.66-.25,2.64-.25Z"></path>
            <path class="cls-1" d="m230.93,54.99h4.73v1.87h-4.73v5.76c0,.62.05,1.14.14,1.55.1.41.24.73.43.96s.43.4.72.49c.29.1.62.14,1.01.14.67,0,1.21-.08,1.62-.23.41-.15.69-.26.85-.32l.43,1.85c-.22.11-.62.25-1.18.42s-1.2.25-1.92.25c-.85,0-1.55-.11-2.1-.32-.55-.22-1-.54-1.33-.97-.34-.43-.57-.96-.71-1.6-.14-.63-.2-1.36-.2-2.2v-11.14l2.23-.38v3.86Z"></path>
            <path class="cls-1" d="m244.64,61.25c0-1.1.16-2.07.48-2.89.32-.82.74-1.51,1.27-2.05.53-.54,1.14-.95,1.82-1.22s1.39-.41,2.11-.41c1.68,0,2.97.52,3.86,1.57.9,1.05,1.34,2.64,1.34,4.79v.37c0,.15,0,.29-.02.42h-8.54c.1,1.3.47,2.28,1.13,2.95.66.67,1.68,1.01,3.07,1.01.78,0,1.44-.07,1.98-.2s.94-.27,1.21-.4l.31,1.87c-.27.14-.75.3-1.43.46-.68.16-1.45.24-2.32.24-1.09,0-2.03-.16-2.82-.49s-1.44-.78-1.96-1.36-.89-1.26-1.14-2.05c-.25-.79-.37-1.66-.37-2.6Zm8.57-1.22c.02-1.01-.24-1.84-.76-2.48-.52-.65-1.24-.97-2.15-.97-.51,0-.96.1-1.36.3-.39.2-.72.46-1,.78-.27.32-.48.69-.64,1.1-.15.42-.25.84-.3,1.27h6.19Zm-.02-9.77l-3.38,3.29-1.13-1.01,3.07-3.7,1.44,1.42Z"></path>
            <path class="cls-1" d="m259.4,55.35c.51-.13,1.19-.26,2.04-.41s1.82-.22,2.93-.22c.99,0,1.82.14,2.47.42.66.28,1.18.67,1.57,1.18.39.5.67,1.11.83,1.81.16.7.24,1.48.24,2.33v7.01h-2.23v-6.53c0-.77-.05-1.42-.16-1.97-.1-.54-.28-.98-.52-1.32-.24-.34-.56-.58-.96-.73-.4-.15-.9-.23-1.49-.23-.24,0-.49,0-.74.02-.26.02-.5.04-.73.06s-.44.05-.62.08c-.18.03-.32.06-.4.07v10.54h-2.23v-12.12Z"></path>
            <path class="cls-1" d="m273.12,61.25c0-1.1.16-2.07.48-2.89.32-.82.74-1.51,1.27-2.05.53-.54,1.14-.95,1.82-1.22s1.39-.41,2.11-.41c1.68,0,2.97.52,3.86,1.57.9,1.05,1.34,2.64,1.34,4.79v.37c0,.15,0,.29-.02.42h-8.54c.1,1.3.47,2.28,1.13,2.95.66.67,1.68,1.01,3.07,1.01.78,0,1.44-.07,1.98-.2s.94-.27,1.21-.4l.31,1.87c-.27.14-.75.3-1.43.46-.68.16-1.45.24-2.32.24-1.09,0-2.03-.16-2.82-.49s-1.44-.78-1.96-1.36-.89-1.26-1.14-2.05c-.25-.79-.37-1.66-.37-2.6Zm8.57-1.22c.02-1.01-.24-1.84-.76-2.48-.52-.65-1.24-.97-2.15-.97-.51,0-.96.1-1.36.3-.39.2-.72.46-1,.78-.27.32-.48.69-.64,1.1-.15.42-.25.84-.3,1.27h6.19Z"></path>
            <path class="cls-1" d="m292.49,54.72c.19,0,.41.01.66.04s.49.06.73.1c.24.04.46.08.66.12.2.04.35.08.44.11l-.38,1.94c-.18-.06-.47-.14-.88-.23-.41-.09-.93-.13-1.57-.13-.42,0-.83.04-1.24.13-.41.09-.68.15-.8.18v10.49h-2.23v-11.95c.53-.19,1.18-.37,1.97-.54.78-.17,1.66-.25,2.64-.25Z"></path>
            <path class="cls-1" d="m305.62,66.22c-.19.13-.56.29-1.12.49-.55.2-1.2.3-1.93.3s-1.46-.12-2.12-.36c-.66-.24-1.24-.61-1.74-1.12-.5-.5-.89-1.13-1.18-1.88-.29-.75-.43-1.65-.43-2.69,0-.91.14-1.75.41-2.51.27-.76.67-1.42,1.19-1.97.52-.55,1.16-.98,1.91-1.3.75-.31,1.6-.47,2.54-.47,1.04,0,1.95.08,2.72.23.78.15,1.43.29,1.96.42v11.14c0,1.92-.5,3.31-1.49,4.18-.99.86-2.5,1.3-4.51,1.3-.78,0-1.52-.06-2.22-.19-.7-.13-1.3-.28-1.81-.46l.41-1.94c.45.18,1,.33,1.64.47.65.14,1.32.2,2.03.2,1.33,0,2.28-.26,2.87-.79.58-.53.88-1.37.88-2.52v-.53Zm-.02-9.26c-.22-.06-.52-.12-.9-.18s-.88-.08-1.52-.08c-1.2,0-2.12.39-2.77,1.18-.65.78-.97,1.82-.97,3.12,0,.72.09,1.34.28,1.85.18.51.43.94.74,1.27s.67.58,1.08.74c.41.16.83.24,1.26.24.59,0,1.14-.08,1.63-.25.5-.17.89-.36,1.18-.59v-7.3Z"></path>
            <path class="cls-1" d="m311.62,61.25c0-1.1.16-2.07.48-2.89.32-.82.74-1.51,1.27-2.05.53-.54,1.14-.95,1.82-1.22s1.39-.41,2.11-.41c1.68,0,2.97.52,3.86,1.57.9,1.05,1.34,2.64,1.34,4.79v.37c0,.15,0,.29-.02.42h-8.54c.1,1.3.47,2.28,1.13,2.95.66.67,1.68,1.01,3.07,1.01.78,0,1.44-.07,1.98-.2s.94-.27,1.21-.4l.31,1.87c-.27.14-.75.3-1.43.46-.68.16-1.45.24-2.32.24-1.09,0-2.03-.16-2.82-.49s-1.44-.78-1.96-1.36-.89-1.26-1.14-2.05c-.25-.79-.37-1.66-.37-2.6Zm8.57-1.22c.02-1.01-.24-1.84-.76-2.48-.52-.65-1.24-.97-2.15-.97-.51,0-.96.1-1.36.3-.39.2-.72.46-1,.78-.27.32-.48.69-.64,1.1-.15.42-.25.84-.3,1.27h6.19Zm-.02-9.77l-3.38,3.29-1.13-1.01,3.07-3.7,1.44,1.42Z"></path>
            <path class="cls-1" d="m328.47,54.99h4.73v1.87h-4.73v5.76c0,.62.05,1.14.14,1.55.1.41.24.73.43.96s.43.4.72.49c.29.1.62.14,1.01.14.67,0,1.21-.08,1.62-.23.41-.15.69-.26.85-.32l.43,1.85c-.22.11-.62.25-1.18.42s-1.2.25-1.92.25c-.85,0-1.55-.11-2.1-.32-.55-.22-1-.54-1.33-.97-.34-.43-.57-.96-.71-1.6-.14-.63-.2-1.36-.2-2.2v-11.14l2.23-.38v3.86Z"></path>
            <path class="cls-1" d="m337.78,52.73c-.4,0-.74-.13-1.02-.4-.28-.26-.42-.62-.42-1.07s.14-.8.42-1.07c.28-.26.62-.4,1.02-.4s.74.13,1.02.4c.28.26.42.62.42,1.07s-.14.8-.42,1.07c-.28.26-.62.4-1.02.4Zm1.13,14.74h-2.23v-12.48h2.23v12.48Z"></path>
            <path class="cls-1" d="m342.7,61.25c0-1.01.15-1.92.44-2.72.3-.81.72-1.49,1.26-2.05.54-.56,1.2-.99,1.97-1.3.77-.3,1.63-.46,2.59-.46,1.04,0,1.96.08,2.75.23.79.15,1.45.29,1.98.42v16.54h-2.23v-4.99c-.27.18-.68.36-1.24.55s-1.19.29-1.91.29c-.9,0-1.69-.16-2.39-.48s-1.28-.77-1.76-1.34c-.48-.58-.84-1.26-1.09-2.06-.25-.8-.37-1.67-.37-2.62Zm2.33,0c0,.64.06,1.24.19,1.79.13.55.34,1.03.62,1.44.29.41.66.73,1.12.96s1,.35,1.64.35,1.17-.1,1.68-.31c.51-.21.9-.42,1.18-.65v-7.87c-.22-.06-.52-.12-.9-.17-.38-.05-.9-.07-1.57-.07-1.2,0-2.16.39-2.88,1.18-.72.78-1.08,1.9-1.08,3.36Z"></path>
            <path class="cls-1" d="m368.11,67.11c-.51.13-1.19.26-2.03.41s-1.81.22-2.92.22c-.96,0-1.77-.14-2.42-.42-.66-.28-1.18-.68-1.58-1.19-.4-.51-.69-1.12-.86-1.81-.18-.7-.26-1.47-.26-2.32v-7.01h2.23v6.53c0,1.52.24,2.61.72,3.26.48.66,1.29.98,2.42.98.24,0,.49,0,.74-.02.25-.02.5-.04.72-.06.22-.02.43-.05.61-.07.18-.02.32-.05.4-.08v-10.54h2.23v12.12Z"></path>
            <path class="cls-1" d="m371.91,61.25c0-1.1.16-2.07.48-2.89.32-.82.74-1.51,1.27-2.05.53-.54,1.14-.95,1.82-1.22s1.39-.41,2.11-.41c1.68,0,2.97.52,3.86,1.57.9,1.05,1.34,2.64,1.34,4.79v.37c0,.15,0,.29-.02.42h-8.54c.1,1.3.47,2.28,1.13,2.95s1.68,1.01,3.07,1.01c.78,0,1.44-.07,1.98-.2.54-.14.94-.27,1.21-.4l.31,1.87c-.27.14-.75.3-1.43.46-.68.16-1.45.24-2.32.24-1.09,0-2.03-.16-2.82-.49s-1.44-.78-1.96-1.36c-.51-.58-.89-1.26-1.14-2.05s-.37-1.66-.37-2.6Zm8.57-1.22c.02-1.01-.24-1.84-.76-2.48-.52-.65-1.24-.97-2.15-.97-.51,0-.96.1-1.36.3-.39.2-.72.46-1,.78-.27.32-.48.69-.64,1.1-.15.42-.25.84-.3,1.27h6.19Z"></path>
          </g>
        </g>
      </g>
    </g>
  </g>
</svg>
